<mxfile host="app.diagrams.net" modified="2024-05-17T14:46:55.096Z" agent="Mozilla/5.0 (Windows NT 10.0; Win64; x64) AppleWebKit/537.36 (KHTML, like Gecko) Chrome/124.0.0.0 Safari/537.36" etag="W7mvosKyoH4nMpZHLULf" version="24.4.4" type="device">
  <diagram name="Page-1" id="vILajNV_7lJ14fbvLAXe">
    <mxGraphModel dx="934" dy="852" grid="1" gridSize="10" guides="1" tooltips="1" connect="1" arrows="1" fold="1" page="1" pageScale="1" pageWidth="1169" pageHeight="827" math="0" shadow="0">
      <root>
        <mxCell id="0" />
        <mxCell id="1" parent="0" />
        <mxCell id="7Cl6TOe8tx5CnKwCsrHq-1" value="ČLAN" style="rounded=1;whiteSpace=wrap;html=1;" parent="1" vertex="1">
          <mxGeometry x="290" y="389" width="120" height="60" as="geometry" />
        </mxCell>
        <mxCell id="7Cl6TOe8tx5CnKwCsrHq-2" value="FILM" style="rounded=1;whiteSpace=wrap;html=1;" parent="1" vertex="1">
          <mxGeometry x="670" y="399" width="120" height="60" as="geometry" />
        </mxCell>
        <mxCell id="7Cl6TOe8tx5CnKwCsrHq-3" value="CJENIK" style="rounded=1;whiteSpace=wrap;html=1;" parent="1" vertex="1">
          <mxGeometry x="560" y="579" width="120" height="60" as="geometry" />
        </mxCell>
        <mxCell id="7Cl6TOe8tx5CnKwCsrHq-4" value="ŽANR" style="rounded=1;whiteSpace=wrap;html=1;" parent="1" vertex="1">
          <mxGeometry x="790" y="579" width="120" height="60" as="geometry" />
        </mxCell>
        <mxCell id="7Cl6TOe8tx5CnKwCsrHq-5" value="POSUDBA" style="rounded=1;whiteSpace=wrap;html=1;" parent="1" vertex="1">
          <mxGeometry x="470" y="219" width="120" height="60" as="geometry" />
        </mxCell>
        <mxCell id="7Cl6TOe8tx5CnKwCsrHq-6" value="posuđuje" style="rhombus;whiteSpace=wrap;html=1;" parent="1" vertex="1">
          <mxGeometry x="310" y="289" width="70" height="60" as="geometry" />
        </mxCell>
        <mxCell id="7Cl6TOe8tx5CnKwCsrHq-7" value="ima" style="rhombus;whiteSpace=wrap;html=1;" parent="1" vertex="1">
          <mxGeometry x="690" y="289" width="60" height="60" as="geometry" />
        </mxCell>
        <mxCell id="7Cl6TOe8tx5CnKwCsrHq-8" value="ima" style="rhombus;whiteSpace=wrap;html=1;direction=south;" parent="1" vertex="1">
          <mxGeometry x="585" y="464" width="50" height="60" as="geometry" />
        </mxCell>
        <mxCell id="7Cl6TOe8tx5CnKwCsrHq-9" value="ima" style="rhombus;whiteSpace=wrap;html=1;" parent="1" vertex="1">
          <mxGeometry x="810" y="479" width="70" height="50" as="geometry" />
        </mxCell>
        <mxCell id="7Cl6TOe8tx5CnKwCsrHq-23" value="N" style="text;html=1;align=center;verticalAlign=middle;resizable=0;points=[];autosize=1;strokeColor=none;fillColor=none;" parent="1" vertex="1">
          <mxGeometry x="300" y="267" width="30" height="30" as="geometry" />
        </mxCell>
        <mxCell id="7Cl6TOe8tx5CnKwCsrHq-24" value="1" style="text;html=1;align=center;verticalAlign=middle;resizable=0;points=[];autosize=1;strokeColor=none;fillColor=none;" parent="1" vertex="1">
          <mxGeometry x="310" y="349" width="30" height="30" as="geometry" />
        </mxCell>
        <mxCell id="7Cl6TOe8tx5CnKwCsrHq-25" value="N" style="text;html=1;align=center;verticalAlign=middle;resizable=0;points=[];autosize=1;strokeColor=none;fillColor=none;" parent="1" vertex="1">
          <mxGeometry x="725" y="267" width="30" height="30" as="geometry" />
        </mxCell>
        <mxCell id="7Cl6TOe8tx5CnKwCsrHq-26" value="1" style="text;html=1;align=center;verticalAlign=middle;resizable=0;points=[];autosize=1;strokeColor=none;fillColor=none;" parent="1" vertex="1">
          <mxGeometry x="725" y="337" width="30" height="30" as="geometry" />
        </mxCell>
        <mxCell id="7Cl6TOe8tx5CnKwCsrHq-27" value="N" style="text;html=1;align=center;verticalAlign=middle;resizable=0;points=[];autosize=1;strokeColor=none;fillColor=none;" parent="1" vertex="1">
          <mxGeometry x="585" y="437" width="30" height="30" as="geometry" />
        </mxCell>
        <mxCell id="7Cl6TOe8tx5CnKwCsrHq-28" value="1" style="text;html=1;align=center;verticalAlign=middle;resizable=0;points=[];autosize=1;strokeColor=none;fillColor=none;" parent="1" vertex="1">
          <mxGeometry x="575" y="517" width="30" height="30" as="geometry" />
        </mxCell>
        <mxCell id="7Cl6TOe8tx5CnKwCsrHq-29" value="N" style="text;html=1;align=center;verticalAlign=middle;resizable=0;points=[];autosize=1;strokeColor=none;fillColor=none;" parent="1" vertex="1">
          <mxGeometry x="855" y="447" width="30" height="30" as="geometry" />
        </mxCell>
        <mxCell id="7Cl6TOe8tx5CnKwCsrHq-30" value="M" style="text;html=1;align=center;verticalAlign=middle;resizable=0;points=[];autosize=1;strokeColor=none;fillColor=none;" parent="1" vertex="1">
          <mxGeometry x="855" y="517" width="30" height="30" as="geometry" />
        </mxCell>
        <mxCell id="7Cl6TOe8tx5CnKwCsrHq-31" value="broj iskaznice, datum registracije" style="ellipse;whiteSpace=wrap;html=1;" parent="1" vertex="1">
          <mxGeometry x="180" y="459" width="110" height="50" as="geometry" />
        </mxCell>
        <mxCell id="7Cl6TOe8tx5CnKwCsrHq-32" value="ime, prezime" style="ellipse;whiteSpace=wrap;html=1;" parent="1" vertex="1">
          <mxGeometry x="180" y="529" width="110" height="50" as="geometry" />
        </mxCell>
        <mxCell id="7Cl6TOe8tx5CnKwCsrHq-62" style="edgeStyle=orthogonalEdgeStyle;rounded=0;orthogonalLoop=1;jettySize=auto;html=1;entryX=0.25;entryY=1;entryDx=0;entryDy=0;" parent="1" source="7Cl6TOe8tx5CnKwCsrHq-33" target="7Cl6TOe8tx5CnKwCsrHq-1" edge="1">
          <mxGeometry relative="1" as="geometry">
            <Array as="points">
              <mxPoint x="320" y="539" />
              <mxPoint x="320" y="539" />
            </Array>
          </mxGeometry>
        </mxCell>
        <mxCell id="7Cl6TOe8tx5CnKwCsrHq-33" value="OIB, GDPR" style="ellipse;whiteSpace=wrap;html=1;" parent="1" vertex="1">
          <mxGeometry x="300" y="559" width="110" height="50" as="geometry" />
        </mxCell>
        <mxCell id="7Cl6TOe8tx5CnKwCsrHq-34" value="adresa, telefon" style="ellipse;whiteSpace=wrap;html=1;" parent="1" vertex="1">
          <mxGeometry x="340" y="487" width="110" height="50" as="geometry" />
        </mxCell>
        <mxCell id="7Cl6TOe8tx5CnKwCsrHq-36" value="" style="endArrow=classic;html=1;rounded=0;entryX=0;entryY=0.5;entryDx=0;entryDy=0;exitX=0.636;exitY=0;exitDx=0;exitDy=0;exitPerimeter=0;" parent="1" source="7Cl6TOe8tx5CnKwCsrHq-31" target="7Cl6TOe8tx5CnKwCsrHq-1" edge="1">
          <mxGeometry width="50" height="50" relative="1" as="geometry">
            <mxPoint x="260" y="459" as="sourcePoint" />
            <mxPoint x="290" y="427" as="targetPoint" />
          </mxGeometry>
        </mxCell>
        <mxCell id="7Cl6TOe8tx5CnKwCsrHq-37" value="" style="endArrow=classic;html=1;rounded=0;exitX=0.764;exitY=0.096;exitDx=0;exitDy=0;exitPerimeter=0;" parent="1" source="7Cl6TOe8tx5CnKwCsrHq-32" edge="1">
          <mxGeometry width="50" height="50" relative="1" as="geometry">
            <mxPoint x="270" y="469" as="sourcePoint" />
            <mxPoint x="310" y="449" as="targetPoint" />
            <Array as="points">
              <mxPoint x="300" y="499" />
            </Array>
          </mxGeometry>
        </mxCell>
        <mxCell id="7Cl6TOe8tx5CnKwCsrHq-39" value="" style="endArrow=classic;html=1;rounded=0;exitX=0;exitY=0;exitDx=0;exitDy=0;entryX=0.583;entryY=1;entryDx=0;entryDy=0;entryPerimeter=0;" parent="1" source="7Cl6TOe8tx5CnKwCsrHq-34" target="7Cl6TOe8tx5CnKwCsrHq-1" edge="1">
          <mxGeometry width="50" height="50" relative="1" as="geometry">
            <mxPoint x="290" y="489" as="sourcePoint" />
            <mxPoint x="360" y="459" as="targetPoint" />
          </mxGeometry>
        </mxCell>
        <mxCell id="7Cl6TOe8tx5CnKwCsrHq-40" value="cijena" style="ellipse;whiteSpace=wrap;html=1;" parent="1" vertex="1">
          <mxGeometry x="370" y="159" width="70" height="30" as="geometry" />
        </mxCell>
        <mxCell id="7Cl6TOe8tx5CnKwCsrHq-41" value="datum posudbe" style="ellipse;whiteSpace=wrap;html=1;" parent="1" vertex="1">
          <mxGeometry x="410" y="109" width="90" height="40" as="geometry" />
        </mxCell>
        <mxCell id="7Cl6TOe8tx5CnKwCsrHq-42" value="datum povratka" style="ellipse;whiteSpace=wrap;html=1;" parent="1" vertex="1">
          <mxGeometry x="490" y="139" width="100" height="40" as="geometry" />
        </mxCell>
        <mxCell id="7Cl6TOe8tx5CnKwCsrHq-43" value="zakasnina" style="ellipse;whiteSpace=wrap;html=1;" parent="1" vertex="1">
          <mxGeometry x="610" y="159" width="80" height="40" as="geometry" />
        </mxCell>
        <mxCell id="7Cl6TOe8tx5CnKwCsrHq-44" value="rok povratka" style="ellipse;whiteSpace=wrap;html=1;" parent="1" vertex="1">
          <mxGeometry x="570" y="99" width="100" height="40" as="geometry" />
        </mxCell>
        <mxCell id="7Cl6TOe8tx5CnKwCsrHq-45" value="" style="endArrow=classic;html=1;rounded=0;exitX=0.686;exitY=1.027;exitDx=0;exitDy=0;exitPerimeter=0;entryX=0.133;entryY=0.02;entryDx=0;entryDy=0;entryPerimeter=0;" parent="1" source="7Cl6TOe8tx5CnKwCsrHq-40" target="7Cl6TOe8tx5CnKwCsrHq-5" edge="1">
          <mxGeometry width="50" height="50" relative="1" as="geometry">
            <mxPoint x="530" y="309" as="sourcePoint" />
            <mxPoint x="490" y="219" as="targetPoint" />
          </mxGeometry>
        </mxCell>
        <mxCell id="7Cl6TOe8tx5CnKwCsrHq-46" value="" style="endArrow=classic;html=1;rounded=0;exitX=0.5;exitY=1;exitDx=0;exitDy=0;entryX=0.25;entryY=0;entryDx=0;entryDy=0;" parent="1" source="7Cl6TOe8tx5CnKwCsrHq-41" target="7Cl6TOe8tx5CnKwCsrHq-5" edge="1">
          <mxGeometry width="50" height="50" relative="1" as="geometry">
            <mxPoint x="450" y="149" as="sourcePoint" />
            <mxPoint x="518" y="179" as="targetPoint" />
          </mxGeometry>
        </mxCell>
        <mxCell id="7Cl6TOe8tx5CnKwCsrHq-47" value="" style="endArrow=classic;html=1;rounded=0;exitX=0.408;exitY=1.07;exitDx=0;exitDy=0;exitPerimeter=0;entryX=0.5;entryY=0;entryDx=0;entryDy=0;" parent="1" source="7Cl6TOe8tx5CnKwCsrHq-42" target="7Cl6TOe8tx5CnKwCsrHq-5" edge="1">
          <mxGeometry width="50" height="50" relative="1" as="geometry">
            <mxPoint x="438" y="210" as="sourcePoint" />
            <mxPoint x="506" y="240" as="targetPoint" />
          </mxGeometry>
        </mxCell>
        <mxCell id="7Cl6TOe8tx5CnKwCsrHq-48" value="" style="endArrow=classic;html=1;rounded=0;exitX=0.376;exitY=1.03;exitDx=0;exitDy=0;exitPerimeter=0;entryX=0.9;entryY=-0.007;entryDx=0;entryDy=0;entryPerimeter=0;" parent="1" source="7Cl6TOe8tx5CnKwCsrHq-44" target="7Cl6TOe8tx5CnKwCsrHq-5" edge="1">
          <mxGeometry width="50" height="50" relative="1" as="geometry">
            <mxPoint x="500" y="189" as="sourcePoint" />
            <mxPoint x="568" y="219" as="targetPoint" />
          </mxGeometry>
        </mxCell>
        <mxCell id="7Cl6TOe8tx5CnKwCsrHq-49" value="" style="endArrow=classic;html=1;rounded=0;exitX=0.375;exitY=1;exitDx=0;exitDy=0;exitPerimeter=0;entryX=1;entryY=0;entryDx=0;entryDy=0;" parent="1" source="7Cl6TOe8tx5CnKwCsrHq-43" target="7Cl6TOe8tx5CnKwCsrHq-5" edge="1">
          <mxGeometry width="50" height="50" relative="1" as="geometry">
            <mxPoint x="696" y="209" as="sourcePoint" />
            <mxPoint x="600" y="219" as="targetPoint" />
          </mxGeometry>
        </mxCell>
        <mxCell id="7Cl6TOe8tx5CnKwCsrHq-50" value="žanr" style="ellipse;whiteSpace=wrap;html=1;" parent="1" vertex="1">
          <mxGeometry x="780" y="304" width="60" height="30" as="geometry" />
        </mxCell>
        <mxCell id="7Cl6TOe8tx5CnKwCsrHq-51" value="tip medija" style="ellipse;whiteSpace=wrap;html=1;" parent="1" vertex="1">
          <mxGeometry x="850" y="297" width="80" height="40" as="geometry" />
        </mxCell>
        <mxCell id="7Cl6TOe8tx5CnKwCsrHq-52" value="" style="endArrow=classic;html=1;rounded=0;exitX=0.34;exitY=0.94;exitDx=0;exitDy=0;exitPerimeter=0;" parent="1" source="7Cl6TOe8tx5CnKwCsrHq-50" edge="1">
          <mxGeometry width="50" height="50" relative="1" as="geometry">
            <mxPoint x="805" y="334" as="sourcePoint" />
            <mxPoint x="750" y="399" as="targetPoint" />
          </mxGeometry>
        </mxCell>
        <mxCell id="7Cl6TOe8tx5CnKwCsrHq-53" value="" style="endArrow=classic;html=1;rounded=0;exitX=0.5;exitY=1;exitDx=0;exitDy=0;entryX=0.853;entryY=-0.007;entryDx=0;entryDy=0;entryPerimeter=0;" parent="1" source="7Cl6TOe8tx5CnKwCsrHq-51" target="7Cl6TOe8tx5CnKwCsrHq-2" edge="1">
          <mxGeometry width="50" height="50" relative="1" as="geometry">
            <mxPoint x="861" y="333" as="sourcePoint" />
            <mxPoint x="810" y="399" as="targetPoint" />
          </mxGeometry>
        </mxCell>
        <mxCell id="7Cl6TOe8tx5CnKwCsrHq-54" value="naziv žanra" style="ellipse;whiteSpace=wrap;html=1;" parent="1" vertex="1">
          <mxGeometry x="805" y="679" width="80" height="50" as="geometry" />
        </mxCell>
        <mxCell id="7Cl6TOe8tx5CnKwCsrHq-57" style="edgeStyle=orthogonalEdgeStyle;rounded=0;orthogonalLoop=1;jettySize=auto;html=1;entryX=0;entryY=0.5;entryDx=0;entryDy=0;" parent="1" source="7Cl6TOe8tx5CnKwCsrHq-55" target="7Cl6TOe8tx5CnKwCsrHq-3" edge="1">
          <mxGeometry relative="1" as="geometry">
            <Array as="points">
              <mxPoint x="500" y="629" />
              <mxPoint x="540" y="629" />
              <mxPoint x="540" y="609" />
            </Array>
          </mxGeometry>
        </mxCell>
        <mxCell id="7Cl6TOe8tx5CnKwCsrHq-55" value="cijena" style="ellipse;whiteSpace=wrap;html=1;" parent="1" vertex="1">
          <mxGeometry x="470" y="649" width="60" height="30" as="geometry" />
        </mxCell>
        <mxCell id="7Cl6TOe8tx5CnKwCsrHq-56" value="naziv" style="ellipse;whiteSpace=wrap;html=1;" parent="1" vertex="1">
          <mxGeometry x="585" y="679" width="70" height="30" as="geometry" />
        </mxCell>
        <mxCell id="7Cl6TOe8tx5CnKwCsrHq-60" style="edgeStyle=orthogonalEdgeStyle;rounded=0;orthogonalLoop=1;jettySize=auto;html=1;entryX=0.44;entryY=1.02;entryDx=0;entryDy=0;entryPerimeter=0;" parent="1" source="7Cl6TOe8tx5CnKwCsrHq-54" target="7Cl6TOe8tx5CnKwCsrHq-4" edge="1">
          <mxGeometry relative="1" as="geometry" />
        </mxCell>
        <mxCell id="9oMWSTzBQQ01RwHiK4GB-1" value="" style="endArrow=none;html=1;rounded=0;exitX=0.461;exitY=0.004;exitDx=0;exitDy=0;entryX=0.5;entryY=1;entryDx=0;entryDy=0;exitPerimeter=0;" parent="1" source="7Cl6TOe8tx5CnKwCsrHq-1" target="7Cl6TOe8tx5CnKwCsrHq-6" edge="1">
          <mxGeometry width="50" height="50" relative="1" as="geometry">
            <mxPoint x="520" y="479" as="sourcePoint" />
            <mxPoint x="570" y="429" as="targetPoint" />
          </mxGeometry>
        </mxCell>
        <mxCell id="9oMWSTzBQQ01RwHiK4GB-2" value="" style="endArrow=none;html=1;rounded=0;entryX=-0.01;entryY=0.443;entryDx=0;entryDy=0;entryPerimeter=0;exitX=0.5;exitY=0;exitDx=0;exitDy=0;" parent="1" source="7Cl6TOe8tx5CnKwCsrHq-6" target="7Cl6TOe8tx5CnKwCsrHq-5" edge="1">
          <mxGeometry width="50" height="50" relative="1" as="geometry">
            <mxPoint x="400" y="439" as="sourcePoint" />
            <mxPoint x="450" y="389" as="targetPoint" />
          </mxGeometry>
        </mxCell>
        <mxCell id="9oMWSTzBQQ01RwHiK4GB-3" value="" style="endArrow=none;html=1;rounded=0;entryX=1;entryY=0.5;entryDx=0;entryDy=0;exitX=0.5;exitY=0;exitDx=0;exitDy=0;" parent="1" source="7Cl6TOe8tx5CnKwCsrHq-7" target="7Cl6TOe8tx5CnKwCsrHq-5" edge="1">
          <mxGeometry width="50" height="50" relative="1" as="geometry">
            <mxPoint x="660" y="329" as="sourcePoint" />
            <mxPoint x="710" y="279" as="targetPoint" />
          </mxGeometry>
        </mxCell>
        <mxCell id="9oMWSTzBQQ01RwHiK4GB-4" value="" style="endArrow=none;html=1;rounded=0;entryX=0.5;entryY=1;entryDx=0;entryDy=0;exitX=0.413;exitY=-0.012;exitDx=0;exitDy=0;exitPerimeter=0;" parent="1" source="7Cl6TOe8tx5CnKwCsrHq-2" target="7Cl6TOe8tx5CnKwCsrHq-7" edge="1">
          <mxGeometry width="50" height="50" relative="1" as="geometry">
            <mxPoint x="660" y="329" as="sourcePoint" />
            <mxPoint x="710" y="279" as="targetPoint" />
          </mxGeometry>
        </mxCell>
        <mxCell id="9oMWSTzBQQ01RwHiK4GB-6" value="" style="endArrow=none;html=1;rounded=0;exitX=0.833;exitY=1.067;exitDx=0;exitDy=0;exitPerimeter=0;entryX=0.005;entryY=0.393;entryDx=0;entryDy=0;entryPerimeter=0;" parent="1" source="7Cl6TOe8tx5CnKwCsrHq-27" target="7Cl6TOe8tx5CnKwCsrHq-2" edge="1">
          <mxGeometry width="50" height="50" relative="1" as="geometry">
            <mxPoint x="660" y="379" as="sourcePoint" />
            <mxPoint x="710" y="329" as="targetPoint" />
            <Array as="points">
              <mxPoint x="610" y="424" />
            </Array>
          </mxGeometry>
        </mxCell>
        <mxCell id="9oMWSTzBQQ01RwHiK4GB-7" value="" style="endArrow=none;html=1;rounded=0;entryX=0.429;entryY=0;entryDx=0;entryDy=0;entryPerimeter=0;exitX=1;exitY=0.5;exitDx=0;exitDy=0;" parent="1" source="7Cl6TOe8tx5CnKwCsrHq-2" target="7Cl6TOe8tx5CnKwCsrHq-9" edge="1">
          <mxGeometry width="50" height="50" relative="1" as="geometry">
            <mxPoint x="660" y="379" as="sourcePoint" />
            <mxPoint x="710" y="329" as="targetPoint" />
            <Array as="points">
              <mxPoint x="840" y="429" />
            </Array>
          </mxGeometry>
        </mxCell>
        <mxCell id="9oMWSTzBQQ01RwHiK4GB-8" value="" style="endArrow=none;html=1;rounded=0;exitX=0.417;exitY=0.012;exitDx=0;exitDy=0;exitPerimeter=0;entryX=1;entryY=0.5;entryDx=0;entryDy=0;" parent="1" source="7Cl6TOe8tx5CnKwCsrHq-3" target="7Cl6TOe8tx5CnKwCsrHq-8" edge="1">
          <mxGeometry width="50" height="50" relative="1" as="geometry">
            <mxPoint x="660" y="609" as="sourcePoint" />
            <mxPoint x="610" y="529" as="targetPoint" />
          </mxGeometry>
        </mxCell>
        <mxCell id="9oMWSTzBQQ01RwHiK4GB-9" value="" style="endArrow=none;html=1;rounded=0;entryX=0.5;entryY=1;entryDx=0;entryDy=0;exitX=0.457;exitY=-0.02;exitDx=0;exitDy=0;exitPerimeter=0;" parent="1" source="7Cl6TOe8tx5CnKwCsrHq-4" target="7Cl6TOe8tx5CnKwCsrHq-9" edge="1">
          <mxGeometry width="50" height="50" relative="1" as="geometry">
            <mxPoint x="660" y="609" as="sourcePoint" />
            <mxPoint x="710" y="559" as="targetPoint" />
          </mxGeometry>
        </mxCell>
        <mxCell id="zo4C42n-wCxbyXjQ8_wm-1" value="" style="endArrow=classic;html=1;rounded=0;entryX=0.469;entryY=1.002;entryDx=0;entryDy=0;entryPerimeter=0;exitX=0.444;exitY=0.013;exitDx=0;exitDy=0;exitPerimeter=0;" edge="1" parent="1" source="7Cl6TOe8tx5CnKwCsrHq-56" target="7Cl6TOe8tx5CnKwCsrHq-3">
          <mxGeometry width="50" height="50" relative="1" as="geometry">
            <mxPoint x="570" y="669" as="sourcePoint" />
            <mxPoint x="620" y="619" as="targetPoint" />
          </mxGeometry>
        </mxCell>
        <mxCell id="zo4C42n-wCxbyXjQ8_wm-2" value="MEMBER" style="shape=table;startSize=30;container=1;collapsible=1;childLayout=tableLayout;fixedRows=1;rowLines=0;fontStyle=1;align=center;resizeLast=1;html=1;" vertex="1" parent="1">
          <mxGeometry x="610" y="940" width="180" height="180" as="geometry" />
        </mxCell>
        <mxCell id="zo4C42n-wCxbyXjQ8_wm-3" value="" style="shape=tableRow;horizontal=0;startSize=0;swimlaneHead=0;swimlaneBody=0;fillColor=none;collapsible=0;dropTarget=0;points=[[0,0.5],[1,0.5]];portConstraint=eastwest;top=0;left=0;right=0;bottom=1;" vertex="1" parent="zo4C42n-wCxbyXjQ8_wm-2">
          <mxGeometry y="30" width="180" height="30" as="geometry" />
        </mxCell>
        <mxCell id="zo4C42n-wCxbyXjQ8_wm-4" value="PK" style="shape=partialRectangle;connectable=0;fillColor=none;top=0;left=0;bottom=0;right=0;fontStyle=1;overflow=hidden;whiteSpace=wrap;html=1;" vertex="1" parent="zo4C42n-wCxbyXjQ8_wm-3">
          <mxGeometry width="30" height="30" as="geometry">
            <mxRectangle width="30" height="30" as="alternateBounds" />
          </mxGeometry>
        </mxCell>
        <mxCell id="zo4C42n-wCxbyXjQ8_wm-5" value="ID" style="shape=partialRectangle;connectable=0;fillColor=none;top=0;left=0;bottom=0;right=0;align=left;spacingLeft=6;fontStyle=5;overflow=hidden;whiteSpace=wrap;html=1;" vertex="1" parent="zo4C42n-wCxbyXjQ8_wm-3">
          <mxGeometry x="30" width="150" height="30" as="geometry">
            <mxRectangle width="150" height="30" as="alternateBounds" />
          </mxGeometry>
        </mxCell>
        <mxCell id="zo4C42n-wCxbyXjQ8_wm-6" value="" style="shape=tableRow;horizontal=0;startSize=0;swimlaneHead=0;swimlaneBody=0;fillColor=none;collapsible=0;dropTarget=0;points=[[0,0.5],[1,0.5]];portConstraint=eastwest;top=0;left=0;right=0;bottom=0;" vertex="1" parent="zo4C42n-wCxbyXjQ8_wm-2">
          <mxGeometry y="60" width="180" height="30" as="geometry" />
        </mxCell>
        <mxCell id="zo4C42n-wCxbyXjQ8_wm-7" value="" style="shape=partialRectangle;connectable=0;fillColor=none;top=0;left=0;bottom=0;right=0;editable=1;overflow=hidden;whiteSpace=wrap;html=1;" vertex="1" parent="zo4C42n-wCxbyXjQ8_wm-6">
          <mxGeometry width="30" height="30" as="geometry">
            <mxRectangle width="30" height="30" as="alternateBounds" />
          </mxGeometry>
        </mxCell>
        <mxCell id="zo4C42n-wCxbyXjQ8_wm-8" value="Member number" style="shape=partialRectangle;connectable=0;fillColor=none;top=0;left=0;bottom=0;right=0;align=left;spacingLeft=6;overflow=hidden;whiteSpace=wrap;html=1;" vertex="1" parent="zo4C42n-wCxbyXjQ8_wm-6">
          <mxGeometry x="30" width="150" height="30" as="geometry">
            <mxRectangle width="150" height="30" as="alternateBounds" />
          </mxGeometry>
        </mxCell>
        <mxCell id="zo4C42n-wCxbyXjQ8_wm-9" value="" style="shape=tableRow;horizontal=0;startSize=0;swimlaneHead=0;swimlaneBody=0;fillColor=none;collapsible=0;dropTarget=0;points=[[0,0.5],[1,0.5]];portConstraint=eastwest;top=0;left=0;right=0;bottom=0;" vertex="1" parent="zo4C42n-wCxbyXjQ8_wm-2">
          <mxGeometry y="90" width="180" height="30" as="geometry" />
        </mxCell>
        <mxCell id="zo4C42n-wCxbyXjQ8_wm-10" value="" style="shape=partialRectangle;connectable=0;fillColor=none;top=0;left=0;bottom=0;right=0;editable=1;overflow=hidden;whiteSpace=wrap;html=1;" vertex="1" parent="zo4C42n-wCxbyXjQ8_wm-9">
          <mxGeometry width="30" height="30" as="geometry">
            <mxRectangle width="30" height="30" as="alternateBounds" />
          </mxGeometry>
        </mxCell>
        <mxCell id="zo4C42n-wCxbyXjQ8_wm-11" value="First name" style="shape=partialRectangle;connectable=0;fillColor=none;top=0;left=0;bottom=0;right=0;align=left;spacingLeft=6;overflow=hidden;whiteSpace=wrap;html=1;" vertex="1" parent="zo4C42n-wCxbyXjQ8_wm-9">
          <mxGeometry x="30" width="150" height="30" as="geometry">
            <mxRectangle width="150" height="30" as="alternateBounds" />
          </mxGeometry>
        </mxCell>
        <mxCell id="zo4C42n-wCxbyXjQ8_wm-12" value="" style="shape=tableRow;horizontal=0;startSize=0;swimlaneHead=0;swimlaneBody=0;fillColor=none;collapsible=0;dropTarget=0;points=[[0,0.5],[1,0.5]];portConstraint=eastwest;top=0;left=0;right=0;bottom=0;" vertex="1" parent="zo4C42n-wCxbyXjQ8_wm-2">
          <mxGeometry y="120" width="180" height="30" as="geometry" />
        </mxCell>
        <mxCell id="zo4C42n-wCxbyXjQ8_wm-13" value="" style="shape=partialRectangle;connectable=0;fillColor=none;top=0;left=0;bottom=0;right=0;editable=1;overflow=hidden;whiteSpace=wrap;html=1;" vertex="1" parent="zo4C42n-wCxbyXjQ8_wm-12">
          <mxGeometry width="30" height="30" as="geometry">
            <mxRectangle width="30" height="30" as="alternateBounds" />
          </mxGeometry>
        </mxCell>
        <mxCell id="zo4C42n-wCxbyXjQ8_wm-14" value="Last name" style="shape=partialRectangle;connectable=0;fillColor=none;top=0;left=0;bottom=0;right=0;align=left;spacingLeft=6;overflow=hidden;whiteSpace=wrap;html=1;" vertex="1" parent="zo4C42n-wCxbyXjQ8_wm-12">
          <mxGeometry x="30" width="150" height="30" as="geometry">
            <mxRectangle width="150" height="30" as="alternateBounds" />
          </mxGeometry>
        </mxCell>
        <mxCell id="zo4C42n-wCxbyXjQ8_wm-15" value="" style="shape=tableRow;horizontal=0;startSize=0;swimlaneHead=0;swimlaneBody=0;fillColor=none;collapsible=0;dropTarget=0;points=[[0,0.5],[1,0.5]];portConstraint=eastwest;top=0;left=0;right=0;bottom=0;" vertex="1" parent="zo4C42n-wCxbyXjQ8_wm-2">
          <mxGeometry y="150" width="180" height="30" as="geometry" />
        </mxCell>
        <mxCell id="zo4C42n-wCxbyXjQ8_wm-16" value="" style="shape=partialRectangle;connectable=0;fillColor=none;top=0;left=0;bottom=0;right=0;editable=1;overflow=hidden;whiteSpace=wrap;html=1;" vertex="1" parent="zo4C42n-wCxbyXjQ8_wm-15">
          <mxGeometry width="30" height="30" as="geometry">
            <mxRectangle width="30" height="30" as="alternateBounds" />
          </mxGeometry>
        </mxCell>
        <mxCell id="zo4C42n-wCxbyXjQ8_wm-17" value="Registation date" style="shape=partialRectangle;connectable=0;fillColor=none;top=0;left=0;bottom=0;right=0;align=left;spacingLeft=6;overflow=hidden;whiteSpace=wrap;html=1;" vertex="1" parent="zo4C42n-wCxbyXjQ8_wm-15">
          <mxGeometry x="30" width="150" height="30" as="geometry">
            <mxRectangle width="150" height="30" as="alternateBounds" />
          </mxGeometry>
        </mxCell>
        <mxCell id="zo4C42n-wCxbyXjQ8_wm-18" value="MOVIES" style="shape=table;startSize=30;container=1;collapsible=1;childLayout=tableLayout;fixedRows=1;rowLines=0;fontStyle=1;align=center;resizeLast=1;html=1;" vertex="1" parent="1">
          <mxGeometry x="600" y="1200" width="180" height="170" as="geometry" />
        </mxCell>
        <mxCell id="zo4C42n-wCxbyXjQ8_wm-19" value="" style="shape=tableRow;horizontal=0;startSize=0;swimlaneHead=0;swimlaneBody=0;fillColor=none;collapsible=0;dropTarget=0;points=[[0,0.5],[1,0.5]];portConstraint=eastwest;top=0;left=0;right=0;bottom=1;" vertex="1" parent="zo4C42n-wCxbyXjQ8_wm-18">
          <mxGeometry y="30" width="180" height="30" as="geometry" />
        </mxCell>
        <mxCell id="zo4C42n-wCxbyXjQ8_wm-20" value="PK" style="shape=partialRectangle;connectable=0;fillColor=none;top=0;left=0;bottom=0;right=0;fontStyle=1;overflow=hidden;whiteSpace=wrap;html=1;" vertex="1" parent="zo4C42n-wCxbyXjQ8_wm-19">
          <mxGeometry width="30" height="30" as="geometry">
            <mxRectangle width="30" height="30" as="alternateBounds" />
          </mxGeometry>
        </mxCell>
        <mxCell id="zo4C42n-wCxbyXjQ8_wm-21" value="ID" style="shape=partialRectangle;connectable=0;fillColor=none;top=0;left=0;bottom=0;right=0;align=left;spacingLeft=6;fontStyle=5;overflow=hidden;whiteSpace=wrap;html=1;" vertex="1" parent="zo4C42n-wCxbyXjQ8_wm-19">
          <mxGeometry x="30" width="150" height="30" as="geometry">
            <mxRectangle width="150" height="30" as="alternateBounds" />
          </mxGeometry>
        </mxCell>
        <mxCell id="zo4C42n-wCxbyXjQ8_wm-22" value="" style="shape=tableRow;horizontal=0;startSize=0;swimlaneHead=0;swimlaneBody=0;fillColor=none;collapsible=0;dropTarget=0;points=[[0,0.5],[1,0.5]];portConstraint=eastwest;top=0;left=0;right=0;bottom=0;" vertex="1" parent="zo4C42n-wCxbyXjQ8_wm-18">
          <mxGeometry y="60" width="180" height="30" as="geometry" />
        </mxCell>
        <mxCell id="zo4C42n-wCxbyXjQ8_wm-23" value="" style="shape=partialRectangle;connectable=0;fillColor=none;top=0;left=0;bottom=0;right=0;editable=1;overflow=hidden;whiteSpace=wrap;html=1;" vertex="1" parent="zo4C42n-wCxbyXjQ8_wm-22">
          <mxGeometry width="30" height="30" as="geometry">
            <mxRectangle width="30" height="30" as="alternateBounds" />
          </mxGeometry>
        </mxCell>
        <mxCell id="zo4C42n-wCxbyXjQ8_wm-24" value="Title" style="shape=partialRectangle;connectable=0;fillColor=none;top=0;left=0;bottom=0;right=0;align=left;spacingLeft=6;overflow=hidden;whiteSpace=wrap;html=1;" vertex="1" parent="zo4C42n-wCxbyXjQ8_wm-22">
          <mxGeometry x="30" width="150" height="30" as="geometry">
            <mxRectangle width="150" height="30" as="alternateBounds" />
          </mxGeometry>
        </mxCell>
        <mxCell id="zo4C42n-wCxbyXjQ8_wm-25" value="" style="shape=tableRow;horizontal=0;startSize=0;swimlaneHead=0;swimlaneBody=0;fillColor=none;collapsible=0;dropTarget=0;points=[[0,0.5],[1,0.5]];portConstraint=eastwest;top=0;left=0;right=0;bottom=0;" vertex="1" parent="zo4C42n-wCxbyXjQ8_wm-18">
          <mxGeometry y="90" width="180" height="30" as="geometry" />
        </mxCell>
        <mxCell id="zo4C42n-wCxbyXjQ8_wm-26" value="" style="shape=partialRectangle;connectable=0;fillColor=none;top=0;left=0;bottom=0;right=0;editable=1;overflow=hidden;whiteSpace=wrap;html=1;" vertex="1" parent="zo4C42n-wCxbyXjQ8_wm-25">
          <mxGeometry width="30" height="30" as="geometry">
            <mxRectangle width="30" height="30" as="alternateBounds" />
          </mxGeometry>
        </mxCell>
        <mxCell id="zo4C42n-wCxbyXjQ8_wm-27" value="Media type" style="shape=partialRectangle;connectable=0;fillColor=none;top=0;left=0;bottom=0;right=0;align=left;spacingLeft=6;overflow=hidden;whiteSpace=wrap;html=1;" vertex="1" parent="zo4C42n-wCxbyXjQ8_wm-25">
          <mxGeometry x="30" width="150" height="30" as="geometry">
            <mxRectangle width="150" height="30" as="alternateBounds" />
          </mxGeometry>
        </mxCell>
        <mxCell id="zo4C42n-wCxbyXjQ8_wm-31" value="" style="shape=tableRow;horizontal=0;startSize=0;swimlaneHead=0;swimlaneBody=0;fillColor=none;collapsible=0;dropTarget=0;points=[[0,0.5],[1,0.5]];portConstraint=eastwest;top=0;left=0;right=0;bottom=0;" vertex="1" parent="zo4C42n-wCxbyXjQ8_wm-18">
          <mxGeometry y="120" width="180" height="30" as="geometry" />
        </mxCell>
        <mxCell id="zo4C42n-wCxbyXjQ8_wm-32" value="" style="shape=partialRectangle;connectable=0;fillColor=none;top=0;left=0;bottom=0;right=0;editable=1;overflow=hidden;whiteSpace=wrap;html=1;" vertex="1" parent="zo4C42n-wCxbyXjQ8_wm-31">
          <mxGeometry width="30" height="30" as="geometry">
            <mxRectangle width="30" height="30" as="alternateBounds" />
          </mxGeometry>
        </mxCell>
        <mxCell id="zo4C42n-wCxbyXjQ8_wm-33" value="Row 3" style="shape=partialRectangle;connectable=0;fillColor=none;top=0;left=0;bottom=0;right=0;align=left;spacingLeft=6;overflow=hidden;whiteSpace=wrap;html=1;" vertex="1" parent="zo4C42n-wCxbyXjQ8_wm-31">
          <mxGeometry x="30" width="150" height="30" as="geometry">
            <mxRectangle width="150" height="30" as="alternateBounds" />
          </mxGeometry>
        </mxCell>
        <mxCell id="zo4C42n-wCxbyXjQ8_wm-28" value="" style="shape=tableRow;horizontal=0;startSize=0;swimlaneHead=0;swimlaneBody=0;fillColor=none;collapsible=0;dropTarget=0;points=[[0,0.5],[1,0.5]];portConstraint=eastwest;top=0;left=0;right=0;bottom=0;" vertex="1" parent="zo4C42n-wCxbyXjQ8_wm-18">
          <mxGeometry y="150" width="180" height="20" as="geometry" />
        </mxCell>
        <mxCell id="zo4C42n-wCxbyXjQ8_wm-29" value="FK" style="shape=partialRectangle;connectable=0;fillColor=none;top=0;left=0;bottom=0;right=0;editable=1;overflow=hidden;whiteSpace=wrap;html=1;" vertex="1" parent="zo4C42n-wCxbyXjQ8_wm-28">
          <mxGeometry width="30" height="20" as="geometry">
            <mxRectangle width="30" height="20" as="alternateBounds" />
          </mxGeometry>
        </mxCell>
        <mxCell id="zo4C42n-wCxbyXjQ8_wm-30" value="Price_list_ID" style="shape=partialRectangle;connectable=0;fillColor=none;top=0;left=0;bottom=0;right=0;align=left;spacingLeft=6;overflow=hidden;whiteSpace=wrap;html=1;" vertex="1" parent="zo4C42n-wCxbyXjQ8_wm-28">
          <mxGeometry x="30" width="150" height="20" as="geometry">
            <mxRectangle width="150" height="20" as="alternateBounds" />
          </mxGeometry>
        </mxCell>
        <mxCell id="zo4C42n-wCxbyXjQ8_wm-34" value="PRICE_LISTS" style="shape=table;startSize=30;container=1;collapsible=1;childLayout=tableLayout;fixedRows=1;rowLines=0;fontStyle=1;align=center;resizeLast=1;html=1;" vertex="1" parent="1">
          <mxGeometry x="900" y="1210" width="180" height="120" as="geometry" />
        </mxCell>
        <mxCell id="zo4C42n-wCxbyXjQ8_wm-35" value="" style="shape=tableRow;horizontal=0;startSize=0;swimlaneHead=0;swimlaneBody=0;fillColor=none;collapsible=0;dropTarget=0;points=[[0,0.5],[1,0.5]];portConstraint=eastwest;top=0;left=0;right=0;bottom=1;" vertex="1" parent="zo4C42n-wCxbyXjQ8_wm-34">
          <mxGeometry y="30" width="180" height="30" as="geometry" />
        </mxCell>
        <mxCell id="zo4C42n-wCxbyXjQ8_wm-36" value="PK" style="shape=partialRectangle;connectable=0;fillColor=none;top=0;left=0;bottom=0;right=0;fontStyle=1;overflow=hidden;whiteSpace=wrap;html=1;" vertex="1" parent="zo4C42n-wCxbyXjQ8_wm-35">
          <mxGeometry width="30" height="30" as="geometry">
            <mxRectangle width="30" height="30" as="alternateBounds" />
          </mxGeometry>
        </mxCell>
        <mxCell id="zo4C42n-wCxbyXjQ8_wm-37" value="ID" style="shape=partialRectangle;connectable=0;fillColor=none;top=0;left=0;bottom=0;right=0;align=left;spacingLeft=6;fontStyle=5;overflow=hidden;whiteSpace=wrap;html=1;" vertex="1" parent="zo4C42n-wCxbyXjQ8_wm-35">
          <mxGeometry x="30" width="150" height="30" as="geometry">
            <mxRectangle width="150" height="30" as="alternateBounds" />
          </mxGeometry>
        </mxCell>
        <mxCell id="zo4C42n-wCxbyXjQ8_wm-38" value="" style="shape=tableRow;horizontal=0;startSize=0;swimlaneHead=0;swimlaneBody=0;fillColor=none;collapsible=0;dropTarget=0;points=[[0,0.5],[1,0.5]];portConstraint=eastwest;top=0;left=0;right=0;bottom=0;" vertex="1" parent="zo4C42n-wCxbyXjQ8_wm-34">
          <mxGeometry y="60" width="180" height="30" as="geometry" />
        </mxCell>
        <mxCell id="zo4C42n-wCxbyXjQ8_wm-39" value="" style="shape=partialRectangle;connectable=0;fillColor=none;top=0;left=0;bottom=0;right=0;editable=1;overflow=hidden;whiteSpace=wrap;html=1;" vertex="1" parent="zo4C42n-wCxbyXjQ8_wm-38">
          <mxGeometry width="30" height="30" as="geometry">
            <mxRectangle width="30" height="30" as="alternateBounds" />
          </mxGeometry>
        </mxCell>
        <mxCell id="zo4C42n-wCxbyXjQ8_wm-40" value="Name" style="shape=partialRectangle;connectable=0;fillColor=none;top=0;left=0;bottom=0;right=0;align=left;spacingLeft=6;overflow=hidden;whiteSpace=wrap;html=1;" vertex="1" parent="zo4C42n-wCxbyXjQ8_wm-38">
          <mxGeometry x="30" width="150" height="30" as="geometry">
            <mxRectangle width="150" height="30" as="alternateBounds" />
          </mxGeometry>
        </mxCell>
        <mxCell id="zo4C42n-wCxbyXjQ8_wm-41" value="" style="shape=tableRow;horizontal=0;startSize=0;swimlaneHead=0;swimlaneBody=0;fillColor=none;collapsible=0;dropTarget=0;points=[[0,0.5],[1,0.5]];portConstraint=eastwest;top=0;left=0;right=0;bottom=0;" vertex="1" parent="zo4C42n-wCxbyXjQ8_wm-34">
          <mxGeometry y="90" width="180" height="30" as="geometry" />
        </mxCell>
        <mxCell id="zo4C42n-wCxbyXjQ8_wm-42" value="" style="shape=partialRectangle;connectable=0;fillColor=none;top=0;left=0;bottom=0;right=0;editable=1;overflow=hidden;whiteSpace=wrap;html=1;" vertex="1" parent="zo4C42n-wCxbyXjQ8_wm-41">
          <mxGeometry width="30" height="30" as="geometry">
            <mxRectangle width="30" height="30" as="alternateBounds" />
          </mxGeometry>
        </mxCell>
        <mxCell id="zo4C42n-wCxbyXjQ8_wm-43" value="Price" style="shape=partialRectangle;connectable=0;fillColor=none;top=0;left=0;bottom=0;right=0;align=left;spacingLeft=6;overflow=hidden;whiteSpace=wrap;html=1;" vertex="1" parent="zo4C42n-wCxbyXjQ8_wm-41">
          <mxGeometry x="30" width="150" height="30" as="geometry">
            <mxRectangle width="150" height="30" as="alternateBounds" />
          </mxGeometry>
        </mxCell>
        <mxCell id="zo4C42n-wCxbyXjQ8_wm-47" value="GENRES" style="shape=table;startSize=30;container=1;collapsible=1;childLayout=tableLayout;fixedRows=1;rowLines=0;fontStyle=1;align=center;resizeLast=1;html=1;" vertex="1" parent="1">
          <mxGeometry x="100" y="1240" width="180" height="90" as="geometry" />
        </mxCell>
        <mxCell id="zo4C42n-wCxbyXjQ8_wm-48" value="" style="shape=tableRow;horizontal=0;startSize=0;swimlaneHead=0;swimlaneBody=0;fillColor=none;collapsible=0;dropTarget=0;points=[[0,0.5],[1,0.5]];portConstraint=eastwest;top=0;left=0;right=0;bottom=1;" vertex="1" parent="zo4C42n-wCxbyXjQ8_wm-47">
          <mxGeometry y="30" width="180" height="30" as="geometry" />
        </mxCell>
        <mxCell id="zo4C42n-wCxbyXjQ8_wm-49" value="PK" style="shape=partialRectangle;connectable=0;fillColor=none;top=0;left=0;bottom=0;right=0;fontStyle=1;overflow=hidden;whiteSpace=wrap;html=1;" vertex="1" parent="zo4C42n-wCxbyXjQ8_wm-48">
          <mxGeometry width="30" height="30" as="geometry">
            <mxRectangle width="30" height="30" as="alternateBounds" />
          </mxGeometry>
        </mxCell>
        <mxCell id="zo4C42n-wCxbyXjQ8_wm-50" value="ID" style="shape=partialRectangle;connectable=0;fillColor=none;top=0;left=0;bottom=0;right=0;align=left;spacingLeft=6;fontStyle=5;overflow=hidden;whiteSpace=wrap;html=1;" vertex="1" parent="zo4C42n-wCxbyXjQ8_wm-48">
          <mxGeometry x="30" width="150" height="30" as="geometry">
            <mxRectangle width="150" height="30" as="alternateBounds" />
          </mxGeometry>
        </mxCell>
        <mxCell id="zo4C42n-wCxbyXjQ8_wm-51" value="" style="shape=tableRow;horizontal=0;startSize=0;swimlaneHead=0;swimlaneBody=0;fillColor=none;collapsible=0;dropTarget=0;points=[[0,0.5],[1,0.5]];portConstraint=eastwest;top=0;left=0;right=0;bottom=0;" vertex="1" parent="zo4C42n-wCxbyXjQ8_wm-47">
          <mxGeometry y="60" width="180" height="30" as="geometry" />
        </mxCell>
        <mxCell id="zo4C42n-wCxbyXjQ8_wm-52" value="" style="shape=partialRectangle;connectable=0;fillColor=none;top=0;left=0;bottom=0;right=0;editable=1;overflow=hidden;whiteSpace=wrap;html=1;" vertex="1" parent="zo4C42n-wCxbyXjQ8_wm-51">
          <mxGeometry width="30" height="30" as="geometry">
            <mxRectangle width="30" height="30" as="alternateBounds" />
          </mxGeometry>
        </mxCell>
        <mxCell id="zo4C42n-wCxbyXjQ8_wm-53" value="Name" style="shape=partialRectangle;connectable=0;fillColor=none;top=0;left=0;bottom=0;right=0;align=left;spacingLeft=6;overflow=hidden;whiteSpace=wrap;html=1;" vertex="1" parent="zo4C42n-wCxbyXjQ8_wm-51">
          <mxGeometry x="30" width="150" height="30" as="geometry">
            <mxRectangle width="150" height="30" as="alternateBounds" />
          </mxGeometry>
        </mxCell>
        <mxCell id="zo4C42n-wCxbyXjQ8_wm-60" value="RENTALS" style="shape=table;startSize=30;container=1;collapsible=1;childLayout=tableLayout;fixedRows=1;rowLines=0;fontStyle=1;align=center;resizeLast=1;html=1;" vertex="1" parent="1">
          <mxGeometry x="900" y="910" width="180" height="270" as="geometry" />
        </mxCell>
        <mxCell id="zo4C42n-wCxbyXjQ8_wm-61" value="" style="shape=tableRow;horizontal=0;startSize=0;swimlaneHead=0;swimlaneBody=0;fillColor=none;collapsible=0;dropTarget=0;points=[[0,0.5],[1,0.5]];portConstraint=eastwest;top=0;left=0;right=0;bottom=1;" vertex="1" parent="zo4C42n-wCxbyXjQ8_wm-60">
          <mxGeometry y="30" width="180" height="30" as="geometry" />
        </mxCell>
        <mxCell id="zo4C42n-wCxbyXjQ8_wm-62" value="PK" style="shape=partialRectangle;connectable=0;fillColor=none;top=0;left=0;bottom=0;right=0;fontStyle=1;overflow=hidden;whiteSpace=wrap;html=1;" vertex="1" parent="zo4C42n-wCxbyXjQ8_wm-61">
          <mxGeometry width="30" height="30" as="geometry">
            <mxRectangle width="30" height="30" as="alternateBounds" />
          </mxGeometry>
        </mxCell>
        <mxCell id="zo4C42n-wCxbyXjQ8_wm-63" value="ID" style="shape=partialRectangle;connectable=0;fillColor=none;top=0;left=0;bottom=0;right=0;align=left;spacingLeft=6;fontStyle=5;overflow=hidden;whiteSpace=wrap;html=1;" vertex="1" parent="zo4C42n-wCxbyXjQ8_wm-61">
          <mxGeometry x="30" width="150" height="30" as="geometry">
            <mxRectangle width="150" height="30" as="alternateBounds" />
          </mxGeometry>
        </mxCell>
        <mxCell id="zo4C42n-wCxbyXjQ8_wm-64" value="" style="shape=tableRow;horizontal=0;startSize=0;swimlaneHead=0;swimlaneBody=0;fillColor=none;collapsible=0;dropTarget=0;points=[[0,0.5],[1,0.5]];portConstraint=eastwest;top=0;left=0;right=0;bottom=0;" vertex="1" parent="zo4C42n-wCxbyXjQ8_wm-60">
          <mxGeometry y="60" width="180" height="30" as="geometry" />
        </mxCell>
        <mxCell id="zo4C42n-wCxbyXjQ8_wm-65" value="" style="shape=partialRectangle;connectable=0;fillColor=none;top=0;left=0;bottom=0;right=0;editable=1;overflow=hidden;whiteSpace=wrap;html=1;" vertex="1" parent="zo4C42n-wCxbyXjQ8_wm-64">
          <mxGeometry width="30" height="30" as="geometry">
            <mxRectangle width="30" height="30" as="alternateBounds" />
          </mxGeometry>
        </mxCell>
        <mxCell id="zo4C42n-wCxbyXjQ8_wm-66" value="Rental_date" style="shape=partialRectangle;connectable=0;fillColor=none;top=0;left=0;bottom=0;right=0;align=left;spacingLeft=6;overflow=hidden;whiteSpace=wrap;html=1;" vertex="1" parent="zo4C42n-wCxbyXjQ8_wm-64">
          <mxGeometry x="30" width="150" height="30" as="geometry">
            <mxRectangle width="150" height="30" as="alternateBounds" />
          </mxGeometry>
        </mxCell>
        <mxCell id="zo4C42n-wCxbyXjQ8_wm-67" value="" style="shape=tableRow;horizontal=0;startSize=0;swimlaneHead=0;swimlaneBody=0;fillColor=none;collapsible=0;dropTarget=0;points=[[0,0.5],[1,0.5]];portConstraint=eastwest;top=0;left=0;right=0;bottom=0;" vertex="1" parent="zo4C42n-wCxbyXjQ8_wm-60">
          <mxGeometry y="90" width="180" height="30" as="geometry" />
        </mxCell>
        <mxCell id="zo4C42n-wCxbyXjQ8_wm-68" value="" style="shape=partialRectangle;connectable=0;fillColor=none;top=0;left=0;bottom=0;right=0;editable=1;overflow=hidden;whiteSpace=wrap;html=1;" vertex="1" parent="zo4C42n-wCxbyXjQ8_wm-67">
          <mxGeometry width="30" height="30" as="geometry">
            <mxRectangle width="30" height="30" as="alternateBounds" />
          </mxGeometry>
        </mxCell>
        <mxCell id="zo4C42n-wCxbyXjQ8_wm-69" value="Return_date" style="shape=partialRectangle;connectable=0;fillColor=none;top=0;left=0;bottom=0;right=0;align=left;spacingLeft=6;overflow=hidden;whiteSpace=wrap;html=1;" vertex="1" parent="zo4C42n-wCxbyXjQ8_wm-67">
          <mxGeometry x="30" width="150" height="30" as="geometry">
            <mxRectangle width="150" height="30" as="alternateBounds" />
          </mxGeometry>
        </mxCell>
        <mxCell id="zo4C42n-wCxbyXjQ8_wm-70" value="" style="shape=tableRow;horizontal=0;startSize=0;swimlaneHead=0;swimlaneBody=0;fillColor=none;collapsible=0;dropTarget=0;points=[[0,0.5],[1,0.5]];portConstraint=eastwest;top=0;left=0;right=0;bottom=0;" vertex="1" parent="zo4C42n-wCxbyXjQ8_wm-60">
          <mxGeometry y="120" width="180" height="30" as="geometry" />
        </mxCell>
        <mxCell id="zo4C42n-wCxbyXjQ8_wm-71" value="" style="shape=partialRectangle;connectable=0;fillColor=none;top=0;left=0;bottom=0;right=0;editable=1;overflow=hidden;whiteSpace=wrap;html=1;" vertex="1" parent="zo4C42n-wCxbyXjQ8_wm-70">
          <mxGeometry width="30" height="30" as="geometry">
            <mxRectangle width="30" height="30" as="alternateBounds" />
          </mxGeometry>
        </mxCell>
        <mxCell id="zo4C42n-wCxbyXjQ8_wm-72" value="Duo_date" style="shape=partialRectangle;connectable=0;fillColor=none;top=0;left=0;bottom=0;right=0;align=left;spacingLeft=6;overflow=hidden;whiteSpace=wrap;html=1;" vertex="1" parent="zo4C42n-wCxbyXjQ8_wm-70">
          <mxGeometry x="30" width="150" height="30" as="geometry">
            <mxRectangle width="150" height="30" as="alternateBounds" />
          </mxGeometry>
        </mxCell>
        <mxCell id="zo4C42n-wCxbyXjQ8_wm-73" value="" style="shape=tableRow;horizontal=0;startSize=0;swimlaneHead=0;swimlaneBody=0;fillColor=none;collapsible=0;dropTarget=0;points=[[0,0.5],[1,0.5]];portConstraint=eastwest;top=0;left=0;right=0;bottom=0;" vertex="1" parent="zo4C42n-wCxbyXjQ8_wm-60">
          <mxGeometry y="150" width="180" height="30" as="geometry" />
        </mxCell>
        <mxCell id="zo4C42n-wCxbyXjQ8_wm-74" value="" style="shape=partialRectangle;connectable=0;fillColor=none;top=0;left=0;bottom=0;right=0;editable=1;overflow=hidden;whiteSpace=wrap;html=1;" vertex="1" parent="zo4C42n-wCxbyXjQ8_wm-73">
          <mxGeometry width="30" height="30" as="geometry">
            <mxRectangle width="30" height="30" as="alternateBounds" />
          </mxGeometry>
        </mxCell>
        <mxCell id="zo4C42n-wCxbyXjQ8_wm-75" value="Late_fee" style="shape=partialRectangle;connectable=0;fillColor=none;top=0;left=0;bottom=0;right=0;align=left;spacingLeft=6;overflow=hidden;whiteSpace=wrap;html=1;" vertex="1" parent="zo4C42n-wCxbyXjQ8_wm-73">
          <mxGeometry x="30" width="150" height="30" as="geometry">
            <mxRectangle width="150" height="30" as="alternateBounds" />
          </mxGeometry>
        </mxCell>
        <mxCell id="zo4C42n-wCxbyXjQ8_wm-76" value="" style="shape=tableRow;horizontal=0;startSize=0;swimlaneHead=0;swimlaneBody=0;fillColor=none;collapsible=0;dropTarget=0;points=[[0,0.5],[1,0.5]];portConstraint=eastwest;top=0;left=0;right=0;bottom=0;" vertex="1" parent="zo4C42n-wCxbyXjQ8_wm-60">
          <mxGeometry y="180" width="180" height="30" as="geometry" />
        </mxCell>
        <mxCell id="zo4C42n-wCxbyXjQ8_wm-77" value="" style="shape=partialRectangle;connectable=0;fillColor=none;top=0;left=0;bottom=0;right=0;editable=1;overflow=hidden;whiteSpace=wrap;html=1;" vertex="1" parent="zo4C42n-wCxbyXjQ8_wm-76">
          <mxGeometry width="30" height="30" as="geometry">
            <mxRectangle width="30" height="30" as="alternateBounds" />
          </mxGeometry>
        </mxCell>
        <mxCell id="zo4C42n-wCxbyXjQ8_wm-78" value="Price" style="shape=partialRectangle;connectable=0;fillColor=none;top=0;left=0;bottom=0;right=0;align=left;spacingLeft=6;overflow=hidden;whiteSpace=wrap;html=1;" vertex="1" parent="zo4C42n-wCxbyXjQ8_wm-76">
          <mxGeometry x="30" width="150" height="30" as="geometry">
            <mxRectangle width="150" height="30" as="alternateBounds" />
          </mxGeometry>
        </mxCell>
        <mxCell id="zo4C42n-wCxbyXjQ8_wm-79" value="" style="shape=tableRow;horizontal=0;startSize=0;swimlaneHead=0;swimlaneBody=0;fillColor=none;collapsible=0;dropTarget=0;points=[[0,0.5],[1,0.5]];portConstraint=eastwest;top=0;left=0;right=0;bottom=0;" vertex="1" parent="zo4C42n-wCxbyXjQ8_wm-60">
          <mxGeometry y="210" width="180" height="30" as="geometry" />
        </mxCell>
        <mxCell id="zo4C42n-wCxbyXjQ8_wm-80" value="FK" style="shape=partialRectangle;connectable=0;fillColor=none;top=0;left=0;bottom=0;right=0;editable=1;overflow=hidden;whiteSpace=wrap;html=1;" vertex="1" parent="zo4C42n-wCxbyXjQ8_wm-79">
          <mxGeometry width="30" height="30" as="geometry">
            <mxRectangle width="30" height="30" as="alternateBounds" />
          </mxGeometry>
        </mxCell>
        <mxCell id="zo4C42n-wCxbyXjQ8_wm-81" value="Member_ID" style="shape=partialRectangle;connectable=0;fillColor=none;top=0;left=0;bottom=0;right=0;align=left;spacingLeft=6;overflow=hidden;whiteSpace=wrap;html=1;" vertex="1" parent="zo4C42n-wCxbyXjQ8_wm-79">
          <mxGeometry x="30" width="150" height="30" as="geometry">
            <mxRectangle width="150" height="30" as="alternateBounds" />
          </mxGeometry>
        </mxCell>
        <mxCell id="zo4C42n-wCxbyXjQ8_wm-82" value="" style="shape=tableRow;horizontal=0;startSize=0;swimlaneHead=0;swimlaneBody=0;fillColor=none;collapsible=0;dropTarget=0;points=[[0,0.5],[1,0.5]];portConstraint=eastwest;top=0;left=0;right=0;bottom=0;" vertex="1" parent="zo4C42n-wCxbyXjQ8_wm-60">
          <mxGeometry y="240" width="180" height="30" as="geometry" />
        </mxCell>
        <mxCell id="zo4C42n-wCxbyXjQ8_wm-83" value="FK" style="shape=partialRectangle;connectable=0;fillColor=none;top=0;left=0;bottom=0;right=0;editable=1;overflow=hidden;whiteSpace=wrap;html=1;" vertex="1" parent="zo4C42n-wCxbyXjQ8_wm-82">
          <mxGeometry width="30" height="30" as="geometry">
            <mxRectangle width="30" height="30" as="alternateBounds" />
          </mxGeometry>
        </mxCell>
        <mxCell id="zo4C42n-wCxbyXjQ8_wm-84" value="Movie_ID" style="shape=partialRectangle;connectable=0;fillColor=none;top=0;left=0;bottom=0;right=0;align=left;spacingLeft=6;overflow=hidden;whiteSpace=wrap;html=1;" vertex="1" parent="zo4C42n-wCxbyXjQ8_wm-82">
          <mxGeometry x="30" width="150" height="30" as="geometry">
            <mxRectangle width="150" height="30" as="alternateBounds" />
          </mxGeometry>
        </mxCell>
        <mxCell id="zo4C42n-wCxbyXjQ8_wm-85" value="MOVIE_GENDERS" style="shape=table;startSize=30;container=1;collapsible=1;childLayout=tableLayout;fixedRows=1;rowLines=0;fontStyle=1;align=center;resizeLast=1;html=1;" vertex="1" parent="1">
          <mxGeometry x="345" y="1341" width="180" height="120" as="geometry" />
        </mxCell>
        <mxCell id="zo4C42n-wCxbyXjQ8_wm-86" value="" style="shape=tableRow;horizontal=0;startSize=0;swimlaneHead=0;swimlaneBody=0;fillColor=none;collapsible=0;dropTarget=0;points=[[0,0.5],[1,0.5]];portConstraint=eastwest;top=0;left=0;right=0;bottom=1;" vertex="1" parent="zo4C42n-wCxbyXjQ8_wm-85">
          <mxGeometry y="30" width="180" height="30" as="geometry" />
        </mxCell>
        <mxCell id="zo4C42n-wCxbyXjQ8_wm-87" value="PK" style="shape=partialRectangle;connectable=0;fillColor=none;top=0;left=0;bottom=0;right=0;fontStyle=1;overflow=hidden;whiteSpace=wrap;html=1;" vertex="1" parent="zo4C42n-wCxbyXjQ8_wm-86">
          <mxGeometry width="30" height="30" as="geometry">
            <mxRectangle width="30" height="30" as="alternateBounds" />
          </mxGeometry>
        </mxCell>
        <mxCell id="zo4C42n-wCxbyXjQ8_wm-88" value="ID" style="shape=partialRectangle;connectable=0;fillColor=none;top=0;left=0;bottom=0;right=0;align=left;spacingLeft=6;fontStyle=5;overflow=hidden;whiteSpace=wrap;html=1;" vertex="1" parent="zo4C42n-wCxbyXjQ8_wm-86">
          <mxGeometry x="30" width="150" height="30" as="geometry">
            <mxRectangle width="150" height="30" as="alternateBounds" />
          </mxGeometry>
        </mxCell>
        <mxCell id="zo4C42n-wCxbyXjQ8_wm-89" value="" style="shape=tableRow;horizontal=0;startSize=0;swimlaneHead=0;swimlaneBody=0;fillColor=none;collapsible=0;dropTarget=0;points=[[0,0.5],[1,0.5]];portConstraint=eastwest;top=0;left=0;right=0;bottom=0;" vertex="1" parent="zo4C42n-wCxbyXjQ8_wm-85">
          <mxGeometry y="60" width="180" height="30" as="geometry" />
        </mxCell>
        <mxCell id="zo4C42n-wCxbyXjQ8_wm-90" value="" style="shape=partialRectangle;connectable=0;fillColor=none;top=0;left=0;bottom=0;right=0;editable=1;overflow=hidden;whiteSpace=wrap;html=1;" vertex="1" parent="zo4C42n-wCxbyXjQ8_wm-89">
          <mxGeometry width="30" height="30" as="geometry">
            <mxRectangle width="30" height="30" as="alternateBounds" />
          </mxGeometry>
        </mxCell>
        <mxCell id="zo4C42n-wCxbyXjQ8_wm-91" value="Movie_ID" style="shape=partialRectangle;connectable=0;fillColor=none;top=0;left=0;bottom=0;right=0;align=left;spacingLeft=6;overflow=hidden;whiteSpace=wrap;html=1;" vertex="1" parent="zo4C42n-wCxbyXjQ8_wm-89">
          <mxGeometry x="30" width="150" height="30" as="geometry">
            <mxRectangle width="150" height="30" as="alternateBounds" />
          </mxGeometry>
        </mxCell>
        <mxCell id="zo4C42n-wCxbyXjQ8_wm-92" value="" style="shape=tableRow;horizontal=0;startSize=0;swimlaneHead=0;swimlaneBody=0;fillColor=none;collapsible=0;dropTarget=0;points=[[0,0.5],[1,0.5]];portConstraint=eastwest;top=0;left=0;right=0;bottom=0;" vertex="1" parent="zo4C42n-wCxbyXjQ8_wm-85">
          <mxGeometry y="90" width="180" height="30" as="geometry" />
        </mxCell>
        <mxCell id="zo4C42n-wCxbyXjQ8_wm-93" value="" style="shape=partialRectangle;connectable=0;fillColor=none;top=0;left=0;bottom=0;right=0;editable=1;overflow=hidden;whiteSpace=wrap;html=1;" vertex="1" parent="zo4C42n-wCxbyXjQ8_wm-92">
          <mxGeometry width="30" height="30" as="geometry">
            <mxRectangle width="30" height="30" as="alternateBounds" />
          </mxGeometry>
        </mxCell>
        <mxCell id="zo4C42n-wCxbyXjQ8_wm-94" value="Genre_ID" style="shape=partialRectangle;connectable=0;fillColor=none;top=0;left=0;bottom=0;right=0;align=left;spacingLeft=6;overflow=hidden;whiteSpace=wrap;html=1;" vertex="1" parent="zo4C42n-wCxbyXjQ8_wm-92">
          <mxGeometry x="30" width="150" height="30" as="geometry">
            <mxRectangle width="150" height="30" as="alternateBounds" />
          </mxGeometry>
        </mxCell>
        <mxCell id="zo4C42n-wCxbyXjQ8_wm-98" value="" style="edgeStyle=entityRelationEdgeStyle;fontSize=12;html=1;endArrow=ERoneToMany;startArrow=ERmandOne;rounded=0;exitX=1;exitY=0.5;exitDx=0;exitDy=0;" edge="1" parent="1" source="zo4C42n-wCxbyXjQ8_wm-3" target="zo4C42n-wCxbyXjQ8_wm-79">
          <mxGeometry width="100" height="100" relative="1" as="geometry">
            <mxPoint x="620" y="1350" as="sourcePoint" />
            <mxPoint x="720" y="1250" as="targetPoint" />
          </mxGeometry>
        </mxCell>
        <mxCell id="zo4C42n-wCxbyXjQ8_wm-100" value="" style="edgeStyle=entityRelationEdgeStyle;fontSize=12;html=1;endArrow=ERoneToMany;startArrow=ERmandOne;rounded=0;exitX=1;exitY=0.5;exitDx=0;exitDy=0;" edge="1" parent="1" source="zo4C42n-wCxbyXjQ8_wm-19" target="zo4C42n-wCxbyXjQ8_wm-82">
          <mxGeometry width="100" height="100" relative="1" as="geometry">
            <mxPoint x="620" y="1350" as="sourcePoint" />
            <mxPoint x="860" y="1170" as="targetPoint" />
          </mxGeometry>
        </mxCell>
        <mxCell id="zo4C42n-wCxbyXjQ8_wm-104" value="" style="edgeStyle=entityRelationEdgeStyle;fontSize=12;html=1;endArrow=ERoneToMany;startArrow=ERmandOne;rounded=0;entryX=1;entryY=0.5;entryDx=0;entryDy=0;" edge="1" parent="1" source="zo4C42n-wCxbyXjQ8_wm-35" target="zo4C42n-wCxbyXjQ8_wm-28">
          <mxGeometry width="100" height="100" relative="1" as="geometry">
            <mxPoint x="620" y="1350" as="sourcePoint" />
            <mxPoint x="720" y="1250" as="targetPoint" />
          </mxGeometry>
        </mxCell>
        <mxCell id="zo4C42n-wCxbyXjQ8_wm-105" value="" style="edgeStyle=entityRelationEdgeStyle;fontSize=12;html=1;endArrow=ERoneToMany;startArrow=ERoneToMany;rounded=0;entryX=0;entryY=0.5;entryDx=0;entryDy=0;" edge="1" parent="1" source="zo4C42n-wCxbyXjQ8_wm-89" target="zo4C42n-wCxbyXjQ8_wm-19">
          <mxGeometry width="100" height="100" relative="1" as="geometry">
            <mxPoint x="630" y="1500" as="sourcePoint" />
            <mxPoint x="720" y="1250" as="targetPoint" />
          </mxGeometry>
        </mxCell>
        <mxCell id="zo4C42n-wCxbyXjQ8_wm-106" value="" style="edgeStyle=entityRelationEdgeStyle;fontSize=12;html=1;endArrow=ERoneToMany;startArrow=ERoneToMany;rounded=0;entryX=0;entryY=0.5;entryDx=0;entryDy=0;" edge="1" parent="1" source="zo4C42n-wCxbyXjQ8_wm-48" target="zo4C42n-wCxbyXjQ8_wm-92">
          <mxGeometry width="100" height="100" relative="1" as="geometry">
            <mxPoint x="395" y="1280" as="sourcePoint" />
            <mxPoint x="495" y="1180" as="targetPoint" />
            <Array as="points">
              <mxPoint x="485" y="1430" />
            </Array>
          </mxGeometry>
        </mxCell>
      </root>
    </mxGraphModel>
  </diagram>
</mxfile>
